<svg xmlns="http://www.w3.org/2000/svg" viewBox="0 0 260 90" role="img" aria-label="Google Pay">
  <rect width="260" height="90" rx="24" fill="#ffffff"/>
  <rect x="8" y="8" width="244" height="74" rx="20" fill="#f8fbff" stroke="#d8e6ff" stroke-width="3"/>
  <g transform="translate(32 24)">
    <path d="M20 0c9 0 15 4 19 8l-8 8c-3-3-6-4-11-4-9 0-16 7-16 16s7 16 16 16c6 0 10-2 13-5 2-2 3-5 4-8H20V20h29c1 3 1 6 1 8 0 9-3 16-8 21-5 5-12 8-22 8C4 57-8 44-8 28S4 0 20 0z" fill="#4285F4"/>
    <path d="M-1 16l-9-7C-4 1 6-5 20-5v12C11 7 4 11-1 16z" fill="#EA4335"/>
    <path d="M20 61c-14 0-24-6-30-14l9-7c5 6 11 9 21 9z" fill="#34A853"/>
    <path d="M-10 47c-3-5-5-11-5-19s2-14 5-19l9 7c-2 3-3 7-3 12s1 9 3 12z" fill="#FBBC05"/>
  </g>
  <text x="92" y="54" font-family="Arial, Helvetica, sans-serif" font-size="34" font-weight="900" fill="#202124">Google Pay</text>
</svg>
